<svg width="32" height="32" viewBox="0 0 32 32" fill="none" xmlns="http://www.w3.org/2000/svg">
<path d="M16 20C18.2091 20 20 18.2091 20 16C20 13.7909 18.2091 12 16 12C13.7909 12 12 13.7909 12 16C12 18.2091 13.7909 20 16 20Z" stroke="#222222" stroke-width="2" stroke-linecap="round" stroke-linejoin="round"/>
<path d="M9.63605 22.364C8.79941 21.5287 8.13566 20.5368 7.6828 19.4448C7.22993 18.3528 6.99683 17.1822 6.99683 16C6.99683 14.8178 7.22993 13.6472 7.6828 12.5552C8.13566 11.4632 8.79941 10.4713 9.63605 9.63604" stroke="#222222" stroke-width="2" stroke-linecap="round" stroke-linejoin="round"/>
<path d="M22.364 9.63604C23.2006 10.4713 23.8643 11.4632 24.3172 12.5552C24.7701 13.6472 25.0032 14.8178 25.0032 16C25.0032 17.1822 24.7701 18.3528 24.3172 19.4448C23.8643 20.5368 23.2006 21.5287 22.364 22.364" stroke="#222222" stroke-width="2" stroke-linecap="round" stroke-linejoin="round"/>
<path d="M6.10052 25.8995C4.79907 24.6003 3.76658 23.0572 3.06212 21.3585C2.35766 19.6599 1.99506 17.839 1.99506 16C1.99506 14.1611 2.35766 12.3402 3.06212 10.6415C3.76658 8.94282 4.79907 7.39973 6.10052 6.10051" stroke="#222222" stroke-width="2" stroke-linecap="round" stroke-linejoin="round"/>
<path d="M25.8995 6.1005C27.2009 7.39972 28.2334 8.94281 28.9379 10.6415C29.6423 12.3401 30.0049 14.161 30.0049 16C30.0049 17.8389 29.6423 19.6598 28.9379 21.3585C28.2334 23.0572 27.2009 24.6003 25.8995 25.8995" stroke="#222222" stroke-width="2" stroke-linecap="round" stroke-linejoin="round"/>
</svg>
