<svg width="100" height="100" viewBox="0 0 100 100" fill="none" xmlns="http://www.w3.org/2000/svg">
<rect width="100" height="100" rx="50" fill="#8F00FF"/>
<path d="M50 45C50 46.5913 49.3679 48.1174 48.2426 49.2426C47.1174 50.3679 45.5913 51 44 51C42.4087 51 40.8826 50.3679 39.7574 49.2426C38.6321 48.1174 38 46.5913 38 45V35C38 33.4087 38.6321 31.8826 39.7574 30.7574C40.8826 29.6321 42.4087 29 44 29C45.5913 29 47.1174 29.6321 48.2426 30.7574C49.3679 31.8826 50 33.4087 50 35V45Z" stroke="white" stroke-width="2" stroke-linecap="round" stroke-linejoin="round"/>
<path d="M50 35C50 33.4087 50.6321 31.8826 51.7574 30.7574C52.8826 29.6321 54.4087 29 56 29C57.5913 29 59.1174 29.6321 60.2426 30.7574C61.3679 31.8826 62 33.4087 62 35V41" stroke="white" stroke-width="2" stroke-linecap="round" stroke-linejoin="round"/>
<path d="M50 63C50 60.3478 51.0536 57.8043 52.9289 55.9289C54.8043 54.0536 57.3478 53 60 53H56C54.4087 53 52.8826 52.3679 51.7574 51.2426C50.6321 50.1174 50 48.5913 50 47V43C50 42.4696 50.2107 41.9609 50.5858 41.5858C50.9609 41.2107 51.4696 41 52 41H68C69.5913 41 71.1174 41.6321 72.2426 42.7574C73.3679 43.8826 74 45.4087 74 47V51C74 57.3652 71.4714 63.4697 66.9706 67.9706C62.4697 72.4714 56.3652 75 50 75C43.6348 75 37.5303 72.4714 33.0294 67.9706C28.5286 63.4697 26 57.3652 26 51V41C26 39.4087 26.6321 37.8826 27.7574 36.7574C28.8826 35.6321 30.4087 35 32 35C33.5913 35 35.1174 35.6321 36.2426 36.7574C37.3679 37.8826 38 39.4087 38 41V45C38 46.5913 37.3679 48.1174 36.2426 49.2426C35.1174 50.3679 33.5913 51 32 51C30.4087 51 28.8826 50.3679 27.7574 49.2426C26.6321 48.1174 26 46.5913 26 45" stroke="white" stroke-width="2" stroke-linecap="round" stroke-linejoin="round"/>
</svg>
