<svg width="100" height="100" viewBox="0 0 100 100" fill="none" xmlns="http://www.w3.org/2000/svg">
<rect width="100" height="100" rx="50" fill="#8F00FF"/>
<path d="M76.8839 48.2546L34.6552 24.6065C34.2999 24.4076 33.8924 24.3218 33.4871 24.3607C33.0818 24.3996 32.698 24.5612 32.387 24.824C32.076 25.0869 31.8527 25.4383 31.7468 25.8315C31.6409 26.2247 31.6575 26.6408 31.7945 27.0242L39.7598 49.327C39.9151 49.762 39.9151 50.2373 39.7598 50.6723L31.7945 72.9751C31.6575 73.3585 31.6409 73.7746 31.7468 74.1678C31.8527 74.561 32.076 74.9124 32.387 75.1753C32.698 75.4381 33.0818 75.5997 33.4871 75.6386C33.8924 75.6775 34.2999 75.5917 34.6552 75.3927L76.8839 51.7447C77.1941 51.5709 77.4524 51.3177 77.6322 51.011C77.8119 50.7043 77.9067 50.3552 77.9067 49.9996C77.9067 49.6441 77.8119 49.295 77.6321 48.9883C77.4524 48.6816 77.1941 48.4284 76.8839 48.2546V48.2546Z" stroke="white" stroke-width="2" stroke-linecap="round" stroke-linejoin="round"/>
<path d="M40 50H56" stroke="white" stroke-width="2" stroke-linecap="round" stroke-linejoin="round"/>
</svg>
