<svg width="100" height="100" viewBox="0 0 100 100" fill="none" xmlns="http://www.w3.org/2000/svg">
<rect width="100" height="100" rx="50" fill="#8F00FF"/>
<path d="M78.1794 50.4459L72 53.5356L64 38.2151L70.2423 35.094C70.7113 34.8595 71.2536 34.8185 71.7525 34.98C72.2514 35.1414 72.6669 35.4923 72.9096 35.9571L79.0578 47.7313C79.1808 47.9668 79.2556 48.2243 79.2779 48.489C79.3002 48.7537 79.2696 49.0201 79.1878 49.2728C79.1061 49.5255 78.9748 49.7594 78.8016 49.9608C78.6285 50.1622 78.417 50.3271 78.1794 50.4459V50.4459Z" stroke="white" stroke-width="2" stroke-linecap="round" stroke-linejoin="round"/>
<path d="M28 53.268L21.8206 50.1784C21.583 50.0596 21.3715 49.8947 21.1983 49.6932C21.0252 49.4918 20.8939 49.2579 20.8121 49.0052C20.7304 48.7525 20.6998 48.4861 20.7221 48.2214C20.7444 47.9568 20.8192 47.6992 20.9421 47.4638L27.0904 35.6895C27.3331 35.2247 27.7486 34.8738 28.2475 34.7124C28.7463 34.551 29.2887 34.5919 29.7577 34.8264L36 37.9475L28 53.268Z" stroke="white" stroke-width="2" stroke-linecap="round" stroke-linejoin="round"/>
<path d="M72 53.5355L68 58.215L58.8007 67.4143C58.5565 67.6585 58.2532 67.8353 57.9204 67.9275C57.5875 68.0197 57.2365 68.0241 56.9014 67.9404L42.4122 64.3181C42.1404 64.2501 41.886 64.1259 41.6653 63.9533L28 53.2676" stroke="white" stroke-width="2" stroke-linecap="round" stroke-linejoin="round"/>
<path d="M68 58.2163L57 50.2163L53.8 52.6163C52.4152 53.6549 50.7309 54.2163 49 54.2163C47.269 54.2163 45.5848 53.6549 44.2 52.6163L42.8448 51.5999C42.6156 51.428 42.4259 51.2088 42.2888 50.9572C42.1516 50.7056 42.0701 50.4275 42.0498 50.1417C42.0295 49.8559 42.0709 49.569 42.1711 49.3006C42.2713 49.0321 42.428 48.7883 42.6306 48.5857L52.4142 38.8021C52.5999 38.6164 52.8204 38.4691 53.063 38.3685C53.3057 38.268 53.5658 38.2163 53.8284 38.2163H64" stroke="white" stroke-width="2" stroke-linecap="round" stroke-linejoin="round"/>
<path d="M36.1436 37.9473L48.9736 34.2069C49.4319 34.0733 49.9229 34.108 50.3578 34.3048L59 38.2152" stroke="white" stroke-width="2" stroke-linecap="round" stroke-linejoin="round"/>
<path d="M46 73.2154L38.4651 71.3317C38.1594 71.2552 37.876 71.1076 37.6381 70.9008L32 66" stroke="white" stroke-width="2" stroke-linecap="round" stroke-linejoin="round"/>
</svg>
