<svg width="32" height="32" viewBox="0 0 32 32" fill="none" xmlns="http://www.w3.org/2000/svg">
<path d="M4 8V18" stroke="white" stroke-width="2" stroke-linecap="round" stroke-linejoin="round"/>
<path d="M6.77899 26.9999C7.77833 25.4648 9.1451 24.2035 10.7553 23.3304C12.3655 22.4573 14.1683 22 16 22C17.8317 22 19.6344 22.4573 21.2446 23.3304C22.8549 24.2035 24.2216 25.4648 25.221 26.9999" stroke="white" stroke-width="2" stroke-linecap="round" stroke-linejoin="round"/>
<path d="M28 8L16 12L4 8L16 4L28 8Z" stroke="white" stroke-width="2" stroke-linecap="round" stroke-linejoin="round"/>
<path d="M21.1671 10.2775C22.083 11.2797 22.6878 12.5266 22.9076 13.8664C23.1275 15.2062 22.953 16.581 22.4053 17.8233C21.8577 19.0657 20.9606 20.122 19.8234 20.8635C18.6861 21.6051 17.3577 21.9999 16 21.9999C14.6423 21.9999 13.3139 21.6051 12.1766 20.8635C11.0394 20.122 10.1423 19.0657 9.59467 17.8233C9.04705 16.581 8.87254 15.2062 9.09239 13.8664C9.31224 12.5266 9.91696 11.2797 10.8329 10.2775" stroke="white" stroke-width="2" stroke-linecap="round" stroke-linejoin="round"/>
</svg>
